<svg version="1.2" xmlns="http://www.w3.org/2000/svg" viewBox="0 0 590 90" width="250" height="38">
	<style>
		.s0 { fill: #ff0000 } 
		.s1 { fill: #0000ff } 
		.s2 { fill: #ffffff } 
	</style>
	<path id="Background" fill-rule="evenodd" class="s0" d="m15 0h560c8.28 0 15 6.72 15 15v60c0 8.28-6.72 15-15 15h-560c-8.28 0-15-6.72-15-15v-60c0-8.28 6.72-15 15-15z"/>
	<path id="Layer 1" fill-rule="evenodd" class="s1" d="m335.35 0h239.65c8.28 0 15 6.72 15 15v60c0 8.28-6.72 15-15 15h-239.66c-8.28 0-79.95-32.72-79.95-41v-8.4c-0.31-8.33 67.18-41.24 79.95-40.6z"/>
	<path id="খবর" class="s2" aria-label="খবর"  d="m102.3 67q-1.1 0-2.4-0.1-2.7-0.4-3.6-0.6-39.7-10.4-41.2-10.9-1.4-0.4-1.4-0.9 0-0.1 0.3-0.3 6.5-3.4 12.9-7.5 6.5-4.2 9.7-9.3 0.8-1.5 0.8-2.9 0-2.2-2-3.8-1.9-1.7-5.8-1.7h-7.7q5 4.1 5 8.5 0 5.4-7.5 9.1-0.8 0.2-2.7 0.2-1.6 0-3.4-0.1-1.8-0.2-3-0.5-1.2-0.4-1.2-0.9v-0.2l3.4-8.5q0.6-0.7 2.6-0.7h1.3q-0.2-4.8-6.7-8.7-0.6-0.4-0.6-0.6 0-0.6 3.4-0.7 2.2 0 4.9 0.6l5.9-0.1q5.2 0 10.4 0.6 5.1 0.4 8.9 2 3.9 1.6 5.3 4.9 0.3 0.8 0.3 1.6 0 3.5-5 7.8-7.3 6.3-18 12.1l28.6 7.6q-0.1-4.4-0.3-8.8-0.3-6-0.3-11.9 0-10.9 2.2-19.2 0.6-0.7 2.7-0.7 1.7 0 3.4 0.3 1.9 0.3 3.2 0.8 1.3 0.3 1.3 0.9l-0.6 2.2h6.2q5.3 0 7.1 1.2 0.4 0.3 0.4 0.6 0 0.4-1 0.5-0.9 0.1-13.1 0.1-1.3 7.3-1.3 14.7 0 5.9 0.4 11.8 0.3 5.4 0.4 10.8 0 0.7-2.2 0.7zm-2.5 0q-1.2 0-2.5-0.1-2.7-0.4-3.6-0.6-39.7-10.4-41.1-10.9-1.5-0.4-1.5-0.9 0-0.1 0.3-0.3 6.5-3.4 13-7.5 6.4-4.2 9.6-9.3 0.8-1.5 0.8-2.9 0-2.2-2-3.8-1.9-1.7-5.8-1.7h-7.7q5.1 4.1 5.1 8.5 0 5.4-7.5 9.1-0.8 0.2-2.8 0.2-1.5 0-3.4-0.1-1.7-0.2-3-0.5-1.2-0.4-1.2-0.9v-0.2l3.4-8.5q0.6-0.7 2.7-0.7h1.2q-0.2-4.8-6.7-8.7-0.6-0.4-0.6-0.6 0-0.6 3.4-0.7 2.3 0 4.9 0.6l6-0.1q5.1 0 10.3 0.6 5.2 0.4 9 2 3.9 1.6 5.2 4.9 0.3 0.8 0.3 1.6 0 3.5-5 7.8-7.3 6.3-18 12.1l28.7 7.6q-0.1-4.4-0.4-8.8-0.3-6-0.3-11.9 0-10.9 2.2-19.2 0.6-0.7 2.8-0.7 1.6 0 3.4 0.3 1.8 0.3 3.1 0.8 1.4 0.3 1.4 0.9l-0.6 2.2h6.1q5.4 0 7.1 1.2 0.4 0.3 0.4 0.6 0 0.4-1 0.5-0.8 0.1-13.1 0.1-1.3 7.3-1.3 14.7 0 5.9 0.4 11.8 0.3 5.4 0.4 10.8 0 0.7-2.1 0.7zm65.6 0q-1.7 0-3.7-0.3-1.8-0.3-2.4-0.4l-40.7-10.8q-1.6-0.5-1.6-0.9l24.2-25.6h-27.9q-2.6 0-5.2-0.4-2.1-0.5-2.1-1.3 0-0.5 0.7-0.6 0.7-0.1 1.8-0.1 36.2 0 37.1-0.1l0.9 0.1q13.3 0 15-0.2 1.9 0.2 14.1 0.2 2.8 0 5.1 0.4 2.3 0.4 2.3 1.4 0 0.4-0.8 0.5-0.8 0.1-13.2 0.1-2.2 7.4-2.2 17.1 0 5.2 0.3 10.5 0.3 4.9 0.4 9.7 0 0.7-2.1 0.7zm-37.4-11.8l29 7.7-0.3-7.7q-0.4-5.3-0.4-10.7 0-7.7 1.7-15.5h-5.1zm34.7 11.8q-1.6 0-3.6-0.3-1.8-0.3-2.4-0.4l-40.7-10.8q-1.6-0.5-1.6-0.9l24.2-25.6h-27.9q-2.7 0-5.2-0.4-2.1-0.5-2.1-1.3 0-0.5 0.6-0.6 0.8-0.1 1.9-0.1 36.2 0 37-0.1l1 0.1q13.3 0 14.9-0.2 2 0.2 14.2 0.2 2.8 0 5 0.4 2.4 0.4 2.4 1.4 0 0.4-0.8 0.5-0.8 0.1-13.3 0.1-2.1 7.4-2.1 17.1 0 5.2 0.3 10.5 0.3 4.9 0.4 9.8 0 0.6-2.2 0.6zm-37.3-11.8l29 7.7-0.3-7.7q-0.4-5.3-0.4-10.7 0-7.7 1.7-15.5h-5.1zm103.9 11.8q-2 0-4.7-0.4-1.8-0.4-14.7-3.9l-2.9 3.3q-0.7 0.6-2.6 0.6-1.5 0-3.4-0.3-1.9-0.3-3.2-0.8-1.3-0.4-1.3-0.8 0 0 3.9-4.4l-17.8-4.8q-1.7-0.5-1.7-0.9l24.2-25.6-27.9 0.1q-2.7 0-5.1-0.5-2.3-0.5-2.3-1.4 0-0.6 2.5-0.6 36.3 0 37.2-0.1l1 0.1q13.2 0 14.9-0.1 1.9 0.1 14.1 0.1 2.8 0 5.1 0.4 2.3 0.4 2.3 1.4 0 0.5-0.8 0.6-0.6 0.1-13.2 0.1-2.2 7.2-2.2 16.7 0 5.2 0.3 10.3 0.4 5.1 0.4 10.3 0 0.6-2.1 0.6zm-17.5-6.5l9.1 2.4-0.3-7.7q-0.4-5.3-0.4-10.7 0-7.7 1.8-15.4h-5.2l-24.8 26.1 10.4 2.8 2.1-2.4q0.8-0.7 2.7-0.7 1.6 0 3.5 0.3 1.8 0.4 3.1 0.8 1.3 0.4 1.3 0.7v0.1q-1.7 1.8-3.3 3.7zm14.9 6.5q-1.9 0-4.7-0.4-1.7-0.4-14.7-3.9l-2.8 3.3q-0.8 0.6-2.7 0.6-1.5 0-3.4-0.3-1.8-0.3-3.2-0.8-1.3-0.4-1.3-0.8 0 0 3.9-4.4l-17.8-4.8q-1.7-0.5-1.7-0.9l24.2-25.6-27.9 0.1q-2.7 0-5-0.5-2.4-0.5-2.4-1.4 0-0.6 2.6-0.6 36.2 0 37.1-0.1l1 0.1q13.2 0 14.9-0.1 2 0.1 14.1 0.1 2.9 0 5.1 0.4 2.4 0.4 2.4 1.4 0 0.5-0.8 0.6-0.7 0.1-13.3 0.1-2.1 7.2-2.1 16.7 0 5.2 0.3 10.3 0.3 5.1 0.3 10.3 0 0.6-2.1 0.6zm-17.4-6.5l9 2.4-0.3-7.7q-0.4-5.3-0.4-10.7 0-7.7 1.8-15.5h-5.2l-24.7 26.2 10.3 2.8 2.1-2.4q0.8-0.7 2.8-0.7 1.5 0 3.4 0.3 1.8 0.4 3.1 0.8 1.4 0.4 1.4 0.7v0.1q-1.8 1.8-3.3 3.7z"/>
	<path id="বাংলা" class="s2" aria-label="বাংলা"  d="m357.4 68q-1.7 0-3.7-0.3-1.8-0.3-2.4-0.4l-40.7-10.8q-1.6-0.5-1.6-0.9l24.2-25.6h-27.9q-2.6 0-5.2-0.4-2.1-0.5-2.1-1.3 0-0.5 0.7-0.6 0.7-0.1 1.8-0.1 36.2 0 37.1-0.1l0.9 0.1q13.3 0 15-0.2 1.9 0.2 14.1 0.2 2.8 0 5.1 0.4 2.3 0.4 2.3 1.4 0 0.4-0.8 0.5-0.8 0.1-13.2 0.1-2.2 7.4-2.2 17.1 0 5.2 0.3 10.5 0.3 4.9 0.4 9.7 0 0.7-2.1 0.7zm-37.4-11.8l29 7.7-0.3-7.7q-0.4-5.3-0.4-10.7 0-7.7 1.7-15.5h-5.1zm34.7 11.8q-1.6 0-3.6-0.3-1.8-0.3-2.4-0.4l-40.7-10.8q-1.6-0.5-1.6-0.9l24.2-25.6h-27.9q-2.7 0-5.2-0.4-2.1-0.5-2.1-1.3 0-0.5 0.6-0.6 0.8-0.1 1.9-0.1 36.2 0 37-0.1l1 0.1q13.3 0 14.9-0.2 2 0.2 14.2 0.2 2.8 0 5 0.4 2.4 0.4 2.4 1.4 0 0.4-0.8 0.5-0.8 0.1-13.3 0.1-2.1 7.4-2.1 17.1 0 5.2 0.3 10.5 0.3 4.9 0.4 9.8 0 0.6-2.2 0.6zm-37.3-11.8l29 7.7-0.3-7.7q-0.4-5.3-0.4-10.7 0-7.7 1.7-15.5h-5.1zm65.8 16.9q-2.4 0-5-0.5-2.7-0.5-2.7-1.3 0-6.2-0.3-12.4-0.4-6.7-0.4-13.4 0-7.8 1-15.4h-6.6q-2.7 0-5.1-0.5-2.3-0.5-2.3-1.4 0-0.4 0.7-0.5 0.8-0.1 13.8-0.1 0.3-1.7 0.8-3.5 0.2-0.6 2.7-0.6 1.7 0 3.5 0.2 1.8 0.3 3.1 0.8 1.2 0.4 1.2 0.9l-0.4 2.2h6.1q2.9 0 5.2 0.4 2.2 0.4 2.2 1.4 0 0.5-0.8 0.6-0.7 0.1-13.2 0.1-1.4 8.4-1.4 17 0 6.6 0.4 13.2 0.3 6.2 0.4 12.2 0 0.6-2.9 0.6zm-2.6 0q-2.4 0-5-0.5-2.6-0.5-2.6-1.3-0.1-6.2-0.4-12.4-0.4-6.7-0.4-13.4 0-7.8 1.1-15.4h-6.7q-2.7 0-5-0.5-2.4-0.5-2.4-1.4 0-0.4 0.7-0.5 0.8-0.1 13.9-0.1 0.2-1.7 0.7-3.5 0.2-0.6 2.8-0.6 1.6 0 3.4 0.2 1.8 0.3 3.1 0.8 1.3 0.4 1.3 0.9l-0.5 2.2h6.1q2.9 0 5.2 0.4 2.2 0.4 2.2 1.4 0 0.5-0.7 0.6-0.7 0.1-13.3 0.1-1.4 8.4-1.4 17 0 6.6 0.4 13.2 0.3 6.2 0.4 12.2 0 0.6-2.9 0.6zm40.7-25.8q-8.4 0-15.7-3.1-6.1-2.8-6.6-8 0-2.9 2.5-4.7 2.7-1.8 6.4-2.7 3.8-1 7.7-1.2 0.7-0.3 1.6-0.3 1.3 0 2.8 0.3 1.9 0.1 3.5 0.7 5.3 1.3 8.7 3.9 3.5 2.6 3.5 6.4-0.4 4.9-4.9 6.9-4.1 1.8-9.5 1.8zm-3.2-2.9q2.5 0 3.9-1.1 1.6-1.2 2.4-2.8 0.7-1.7 0.7-3.2-0.3-4.6-5.4-7.1-7.6 1.1-9.6 5.2-0.5 1.1-0.5 2.2 0 2.3 2 4.3 2.1 2.3 6.5 2.5zm16.8 24q-2.1 0-4.2-0.3-2.1-0.4-2.8-1.1-3.5-4.9-9.8-8.7-6.2-3.8-14.4-4.9-4.7-0.5-4.7-1.6 0.1-0.7 2.5-0.7 1.8 0 3.1 0.2 10.9 1.5 19.7 5.5 8.8 4.1 13.9 10.8l0.1 0.2q0 0.6-3.4 0.6zm-16.1-21.1q-8.5 0-15.7-3.1-6.2-2.8-6.7-8 0-2.9 2.6-4.7 2.6-1.8 6.3-2.7 3.8-1 7.7-1.2 0.7-0.3 1.7-0.3 1.2 0 2.7 0.3 2 0.1 3.5 0.7 5.3 1.3 8.7 3.9 3.5 2.6 3.5 6.4-0.4 4.9-4.9 6.9-4.1 1.8-9.4 1.8zm-3.2-2.9q2.4 0 3.9-1.1 1.5-1.2 2.3-2.8 0.8-1.7 0.8-3.2-0.4-4.6-5.5-7.1-7.6 1.1-9.5 5.2-0.5 1.1-0.5 2.2 0 2.3 1.9 4.3 2.2 2.3 6.6 2.5zm16.7 24q-2 0-4.2-0.3-2.1-0.4-2.8-1.1-3.5-4.9-9.7-8.7-6.3-3.8-14.5-4.9-4.7-0.5-4.7-1.6 0.1-0.7 2.6-0.7 1.7 0 3 0.2 10.9 1.5 19.7 5.5 8.9 4.1 13.9 10.8l0.1 0.2q0 0.6-3.4 0.6zm71.5-0.4q-2.3 0-5-0.4-2.5-0.6-2.5-1.5 0-4.6-0.4-9.3l-0.2-4.6q-0.5-5-5.3-8.5-1.3 6.6-2.4 13.2-0.2 0.6-2.8 0.6-2.4 0-5-0.5-2.6-0.6-2.8-1.4-0.2-4.8-3.6-9.2-1.6-1.9-2.9-3.2-2.7-2.8-5.4-2.8-3.7 0-6.8 4.2-3.2 4.2-3.2 9.2 0 1.2 0.3 2.4 0.7 2.5 2.4 2.5 1.2 0 3-2.1-1-0.4-1-0.7 0-0.2 2.3-5.4 0.6-0.8 2.9-0.8 2.3 0 4.9 0.6 2.5 0.6 2.7 1.4v0.9q0 6.4-5.7 8.5-2.7 0.9-5.8 0.9-4.9 0-9.3-1.4-7.2-2.1-7.2-8.4 0-3 1.4-6 1.8-4.3 6.2-6.3 4.5-2 10.3-2 10.4 0 16.8 4.8l0.8-3.9q0.5-0.8 2.2-0.8 1.9 0 4.1 0.4 4.7 0.9 8.8 2.9 0.2-5.7 1.8-11.2h-56.2q-2.7 0-5.1-0.5-2.3-0.5-2.3-1.4 0-0.6 2.5-0.6 62.8 0 64.4-0.1 1.9 0.1 14.1 0.1 2.9 0 5.2 0.4 2.2 0.4 2.2 1.4 0 0.5-0.7 0.6-0.7 0.1-13.3 0.1-2.1 7.2-2.1 16.7 0 5.4 0.3 10.7 0.3 4.9 0.4 9.9 0 0.6-3 0.6zm-2.6 0q-2.3 0-4.9-0.4-2.6-0.6-2.6-1.5 0-4.6-0.4-9.3l-0.2-4.6q-0.4-5-5.3-8.5-1.3 6.6-2.4 13.2-0.2 0.6-2.8 0.6-2.3 0-5-0.5-2.6-0.6-2.8-1.4-0.2-4.8-3.6-9.2-1.6-1.9-2.9-3.2-2.7-2.8-5.4-2.8-3.7 0-6.8 4.2-3.1 4.2-3.1 9.2 0 1.2 0.3 2.4 0.6 2.5 2.3 2.5 1.3 0 3-2.1-0.9-0.4-0.9-0.7 0-0.2 2.2-5.4 0.7-0.8 2.9-0.8 2.4 0 4.9 0.6 2.5 0.6 2.7 1.4v0.9q0 6.4-5.6 8.5-2.8 0.9-5.9 0.9-4.9 0-9.2-1.4-7.3-2.1-7.3-8.4 0-3 1.4-6 1.9-4.3 6.2-6.3 4.5-2 10.3-2 10.4 0 16.9 4.8l0.7-3.9q0.5-0.8 2.3-0.8 1.8 0 4.1 0.4 4.6 0.9 8.7 2.9 0.2-5.7 1.8-11.2h-56.2q-2.7 0-5-0.5-2.4-0.5-2.4-1.4 0-0.6 2.6-0.6 62.8 0 64.3-0.1 2 0.1 14.2 0.1 2.9 0 5.1 0.4 2.3 0.4 2.3 1.4 0 0.5-0.8 0.6-0.7 0.1-13.3 0.1-2 7.2-2 16.7 0 5.4 0.3 10.7 0.3 4.9 0.4 9.9 0 0.6-3.1 0.6zm29 5.1q-2.4 0-5-0.5-2.7-0.5-2.7-1.3 0-6.2-0.3-12.4-0.4-6.7-0.4-13.4 0-7.8 1-15.4h-6.6q-2.7 0-5.1-0.5-2.3-0.5-2.3-1.4 0-0.4 0.7-0.5 0.8-0.1 13.8-0.1 0.3-1.7 0.8-3.5 0.2-0.6 2.7-0.6 1.7 0 3.5 0.2 1.8 0.3 3.1 0.8 1.2 0.4 1.2 0.9l-0.4 2.2h6.1q2.9 0 5.2 0.4 2.2 0.4 2.2 1.4 0 0.5-0.8 0.6-0.7 0.1-13.2 0.1-1.4 8.4-1.4 17 0 6.6 0.4 13.2 0.3 6.2 0.4 12.2 0 0.6-2.9 0.6zm-2.6 0q-2.4 0-5-0.5-2.6-0.5-2.6-1.3-0.1-6.2-0.4-12.4-0.4-6.7-0.4-13.4 0-7.8 1.1-15.4h-6.7q-2.7 0-5-0.5-2.4-0.5-2.4-1.4 0-0.4 0.7-0.5 0.8-0.1 13.9-0.1 0.2-1.7 0.7-3.5 0.2-0.6 2.8-0.6 1.6 0 3.4 0.2 1.8 0.3 3.1 0.8 1.3 0.4 1.3 0.9l-0.5 2.2h6.1q2.9 0 5.2 0.4 2.2 0.4 2.2 1.4 0 0.5-0.7 0.6-0.7 0.1-13.3 0.1-1.4 8.4-1.4 17 0 6.6 0.4 13.2 0.3 6.2 0.4 12.2 0 0.6-2.9 0.6z"/>
</svg>